usemtl ReimuMaterial
g Cube_Cube.001
v -0.500000 -0.500000 0.500000
v 0.500000 -0.500000 0.500000
v -0.500000 0.500000 0.500000
v 0.500000 0.500000 0.500000
v -0.500000 0.500000 -0.500000
v 0.500000 0.500000 -0.500000
v -0.500000 -0.500000 -0.500000
v 0.500000 -0.500000 -0.500000
vt 0.000000 0.000170
vt 0.999830 0.000000
vt 1.000000 0.999830
vt 0.000170 1.000000
vt 0.000000 0.000139
vt 0.999861 0.000000
vt 1.000000 0.999861
vt 0.000139 1.000000
vt 0.000139 0.000000
vt 1.000000 0.000139
vt 0.999861 1.000000
vt 0.000000 0.999861
vt 0.000000 0.000170
vt 0.999830 0.000000
vt 1.000000 0.999830
vt 0.000170 1.000000
vt 0.000000 0.000170
vt 0.999830 0.000000
vt 1.000000 0.999830
vt 0.000169 1.000000
vt 0.000078 0.000000
vt 1.000000 0.000078
vt 0.999922 1.000000
vt 0.000000 0.999922
vn 0.000000 0.000000 1.000000
vn 0.000000 0.000000 1.000000
vn 0.000000 0.000000 1.000000
vn 0.000000 0.000000 1.000000
vn 0.000000 1.000000 0.000000
vn 0.000000 1.000000 0.000000
vn 0.000000 1.000000 0.000000
vn 0.000000 1.000000 0.000000
vn 0.000000 0.000000 -1.000000
vn 0.000000 0.000000 -1.000000
vn 0.000000 0.000000 -1.000000
vn 0.000000 0.000000 -1.000000
vn 0.000000 -1.000000 0.000000
vn 0.000000 -1.000000 0.000000
vn 0.000000 -1.000000 0.000000
vn 0.000000 -1.000000 0.000000
vn 1.000000 0.000000 0.000000
vn 1.000000 0.000000 0.000000
vn 1.000000 0.000000 0.000000
vn 1.000000 0.000000 0.000000
vn -1.000000 0.000000 0.000000
vn -1.000000 0.000000 0.000000
vn -1.000000 0.000000 0.000000
vn -1.000000 0.000000 0.000000
s 1
f 1/1/1 2/2/2 3/4/3
f 3/4/3 2/2/2 4/3/4
f 3/5/5 4/6/6 5/8/7
f 5/8/7 4/6/6 6/7/8
f 5/9/9 6/10/10 7/12/11
f 7/12/11 6/10/10 8/11/12
f 7/13/13 8/14/14 1/16/15
f 1/16/15 8/14/14 2/15/16
f 2/17/17 8/18/18 4/20/19
f 4/20/19 8/18/18 6/19/20
f 7/21/21 1/22/22 5/24/23
f 5/24/23 1/22/22 3/23/24
